<?xml version="1.0" standalone="no"?>
<svg viewBox="0 0 200 200" xmlns="http://www.w3.org/2000/svg">
  <path fill="#9EE08F" d="M44,-77.2C57.4,-68.4,69,-57.5,76.7,-44.2C84.4,-31,88.2,-15.5,88.3,0.1C88.5,15.6,84.9,31.3,77.1,44.4C69.3,57.5,57.4,68.1,43.9,76C30.3,83.9,15.2,89,0.2,88.6C-14.7,88.2,-29.4,82.3,-43,74.5C-56.5,66.6,-68.9,56.8,-77.6,44C-86.3,31.3,-91.3,15.6,-91.7,-0.2C-92.1,-16.1,-87.9,-32.2,-79.3,-45.1C-70.7,-58,-57.7,-67.8,-43.8,-76.3C-29.9,-84.7,-14.9,-91.9,0.2,-92.2C15.3,-92.5,30.6,-85.9,44,-77.2Z" transform="translate(100 100)" />
</svg>
